<svg width="512" height="512" viewBox="0 0 512 512" fill="none" xmlns="http://www.w3.org/2000/svg">
  <defs>
    <linearGradient id="ringGradient" x1="104" y1="91" x2="392" y2="421" gradientUnits="userSpaceOnUse">
      <stop stop-color="#6D35B0"/>
      <stop offset="1" stop-color="#3B1368"/>
    </linearGradient>
    <linearGradient id="slashGradient" x1="94" y1="395" x2="419" y2="79" gradientUnits="userSpaceOnUse">
      <stop stop-color="#B89754"/>
      <stop offset="0.5" stop-color="#E5D29B"/>
      <stop offset="1" stop-color="#B99650"/>
    </linearGradient>
    <filter id="shadow" x="74" y="71" width="364" height="370" filterUnits="userSpaceOnUse" color-interpolation-filters="sRGB">
      <feFlood flood-opacity="0" result="BackgroundImageFix"/>
      <feColorMatrix in="SourceAlpha" type="matrix" values="0 0 0 0 0 0 0 0 0 0 0 0 0 0 0 0 0 0 127 0" result="hardAlpha"/>
      <feOffset dx="0" dy="10"/>
      <feGaussianBlur stdDeviation="12"/>
      <feColorMatrix type="matrix" values="0 0 0 0 0.05 0 0 0 0 0.02 0 0 0 0 0.08 0 0 0 0.35 0"/>
      <feBlend mode="normal" in2="BackgroundImageFix" result="effect1_dropShadow_0_1"/>
      <feBlend mode="normal" in="SourceGraphic" in2="effect1_dropShadow_0_1" result="shape"/>
    </filter>
  </defs>
  <g filter="url(#shadow)">
    <path d="M256 86C349.888 86 426 162.112 426 256C426 349.888 349.888 426 256 426C162.112 426 86 349.888 86 256C86 162.112 162.112 86 256 86ZM256 146C195.249 146 146 195.249 146 256C146 316.751 195.249 366 256 366C316.751 366 366 316.751 366 256C366 195.249 316.751 146 256 146Z" fill="url(#ringGradient)"/>
    <path d="M413.345 69L438 93.655L196.517 443H74L413.345 69Z" fill="url(#slashGradient)"/>
    <path d="M409.103 72H435L193.517 422H83.5864L409.103 72Z" stroke="#F4E3B6" stroke-width="2" stroke-opacity="0.55"/>
  </g>
</svg>
